<svg width="27" height="27" viewBox="0 0 27 27" fill="none" xmlns="http://www.w3.org/2000/svg">
<path id="Vector" d="M9.0822 11.9618C8.31217 11.8089 7.59487 12.4312 7.59487 13.217V15.8749C7.59487 16.4128 7.96934 16.8452 8.47567 17.0351C9.43558 17.3937 10.1265 18.3218 10.1265 19.4082C10.1265 20.8057 8.99254 21.9395 7.59487 21.9395C6.19721 21.9395 5.06325 20.8057 5.06325 19.4082V6.32962C5.06325 5.62823 4.49891 5.06395 3.79744 5.06395H1.26581C0.564341 5.06395 0 5.62823 0 6.32962V19.4082C0 24.1281 4.33013 27.8565 9.22988 26.8282C12.0991 26.227 14.4144 23.9066 15.0157 21.043C15.9334 16.6712 13.0642 12.7529 9.0822 11.9618ZM11.0231 0.00127813C10.5379 -0.02509 10.1265 0.359884 10.1265 0.845057V2.51152C10.1265 2.95978 10.4746 3.32893 10.9176 3.35003C17.7425 3.71918 23.2277 9.25648 23.6232 16.0858C23.6496 16.5288 24.0188 16.8769 24.4618 16.8769H26.1548C26.6401 16.8769 27.0251 16.4655 26.9987 15.9803C26.5504 7.3738 19.6306 0.454809 11.0231 0.00127813ZM11.0389 5.06395C10.5484 5.02704 10.1265 5.41728 10.1265 5.913V7.60583C10.1265 8.04882 10.4693 8.4127 10.9071 8.44434C14.9577 8.77658 18.1855 12.0409 18.5494 16.1016C18.5916 16.5393 18.9503 16.8769 19.388 16.8769H21.0863C21.5768 16.8769 21.9724 16.455 21.9355 15.9645C21.4924 10.1583 16.8459 5.51221 11.0389 5.06395Z" fill="#104573"/>
</svg>
