<svg width="66" height="54" viewBox="0 0 66 54" fill="none" xmlns="http://www.w3.org/2000/svg">
<path opacity="0.1" d="M37.7295 53.25V41.75C42.3962 40.75 46.1462 38.6667 48.9795 35.5C51.8128 32.1667 53.2295 28.25 53.2295 23.75C53.2295 21.0833 52.8962 18.75 52.2295 16.75L58.7295 13C59.0628 13.6667 59.2295 14.3333 59.2295 15C59.3962 15.6667 59.4795 16.3333 59.4795 17C59.4795 19.1667 58.8962 20.9167 57.7295 22.25C56.5628 23.4167 55.2295 24.3333 53.7295 25C52.2295 25.5 50.8962 25.75 49.7295 25.75C46.2295 25.75 43.2295 24.5833 40.7295 22.25C38.2295 19.75 36.9795 16.6667 36.9795 13C36.9795 9.49999 38.1462 6.49999 40.4795 3.99999C42.9795 1.49999 46.1462 0.249996 49.9795 0.249996C53.1462 0.249996 55.8128 1.24999 57.9795 3.24999C60.3128 5.08333 62.0628 7.58333 63.2295 10.75C64.5628 13.75 65.2295 17.0833 65.2295 20.75C65.2295 24.25 64.6462 27.75 63.4795 31.25C62.4795 34.75 60.8128 38.0833 58.4795 41.25C56.3128 44.25 53.4795 46.8333 49.9795 49C46.4795 51.1667 42.3962 52.5833 37.7295 53.25ZM1.22949 53.25V41.75C5.89616 40.75 9.64616 38.6667 12.4795 35.5C15.3128 32.1667 16.7295 28.25 16.7295 23.75C16.7295 21.0833 16.3962 18.75 15.7295 16.75L22.2295 13C22.5628 13.6667 22.7295 14.3333 22.7295 15C22.8962 15.6667 22.9795 16.3333 22.9795 17C22.9795 19.1667 22.3962 20.9167 21.2295 22.25C20.0628 23.4167 18.7295 24.3333 17.2295 25C15.7295 25.5 14.3962 25.75 13.2295 25.75C9.72949 25.75 6.72949 24.5833 4.22949 22.25C1.72949 19.75 0.479493 16.6667 0.479493 13C0.479493 9.49999 1.64616 6.49999 3.97949 3.99999C6.47949 1.49999 9.64616 0.249996 13.4795 0.249996C16.6462 0.249996 19.3128 1.24999 21.4795 3.24999C23.8128 5.08333 25.5628 7.58333 26.7295 10.75C28.0628 13.75 28.7295 17.0833 28.7295 20.75C28.7295 24.25 28.1462 27.75 26.9795 31.25C25.9795 34.75 24.3128 38.0833 21.9795 41.25C19.8128 44.25 16.9795 46.8333 13.4795 49C9.97949 51.1667 5.89616 52.5833 1.22949 53.25Z" fill="black"/>
</svg>
