<svg width="18" height="17" viewBox="0 0 18 17" fill="none" xmlns="http://www.w3.org/2000/svg">
<path id="Vector" d="M1.8 1.8H4.5L6.3 0H11.7L13.5 1.8H16.2C16.6774 1.8 17.1352 1.98964 17.4728 2.32721C17.8104 2.66477 18 3.12261 18 3.6V14.4C18 14.8774 17.8104 15.3352 17.4728 15.6728C17.1352 16.0104 16.6774 16.2 16.2 16.2H1.8C1.32261 16.2 0.864773 16.0104 0.527208 15.6728C0.189642 15.3352 0 14.8774 0 14.4V3.6C0 3.12261 0.189642 2.66477 0.527208 2.32721C0.864773 1.98964 1.32261 1.8 1.8 1.8ZM9 4.5C7.80653 4.5 6.66193 4.97411 5.81802 5.81802C4.97411 6.66193 4.5 7.80653 4.5 9C4.5 10.1935 4.97411 11.3381 5.81802 12.182C6.66193 13.0259 7.80653 13.5 9 13.5C10.1935 13.5 11.3381 13.0259 12.182 12.182C13.0259 11.3381 13.5 10.1935 13.5 9C13.5 7.80653 13.0259 6.66193 12.182 5.81802C11.3381 4.97411 10.1935 4.5 9 4.5ZM9 6.3C9.71608 6.3 10.4028 6.58446 10.9092 7.09081C11.4155 7.59716 11.7 8.28392 11.7 9C11.7 9.71608 11.4155 10.4028 10.9092 10.9092C10.4028 11.4155 9.71608 11.7 9 11.7C8.28392 11.7 7.59716 11.4155 7.09081 10.9092C6.58446 10.4028 6.3 9.71608 6.3 9C6.3 8.28392 6.58446 7.59716 7.09081 7.09081C7.59716 6.58446 8.28392 6.3 9 6.3Z" fill="black"/>
</svg>
