<svg width="28" height="22" viewBox="0 0 28 22" fill="none" xmlns="http://www.w3.org/2000/svg">
<path id="Vector" d="M19.0909 9.42857C21.2036 9.42857 22.8964 7.32286 22.8964 4.71429C22.8964 2.10571 21.2036 0 19.0909 0C16.9782 0 15.2727 2.10571 15.2727 4.71429C15.2727 7.32286 16.9782 9.42857 19.0909 9.42857ZM8.90909 9.42857C11.0218 9.42857 12.7145 7.32286 12.7145 4.71429C12.7145 2.10571 11.0218 0 8.90909 0C6.79636 0 5.09091 2.10571 5.09091 4.71429C5.09091 7.32286 6.79636 9.42857 8.90909 9.42857ZM8.90909 12.5714C5.94364 12.5714 0 14.41 0 18.0714V20.4286C0 21.2929 0.572727 22 1.27273 22H16.5455C17.2455 22 17.8182 21.2929 17.8182 20.4286V18.0714C17.8182 14.41 11.8745 12.5714 8.90909 12.5714ZM19.0909 12.5714C18.7218 12.5714 18.3018 12.6029 17.8564 12.65C17.8818 12.6657 17.8945 12.6971 17.9073 12.7129C19.3582 14.0171 20.3636 15.7614 20.3636 18.0714V20.4286C20.3636 20.9786 20.2745 21.5129 20.1345 22H26.7273C27.4273 22 28 21.2929 28 20.4286V18.0714C28 14.41 22.0564 12.5714 19.0909 12.5714Z" fill="#104573"/>
</svg>
