<svg width="18" height="19" viewBox="0 0 18 19" fill="none" xmlns="http://www.w3.org/2000/svg">
<path d="M17.7509 10.1295L11.7506 18.0032C11.2148 18.7062 10.2862 18.2141 10.2862 17.2064V12.7072H5.42884C4.95382 12.7072 4.57166 12.2057 4.57166 11.5824V7.08313C4.57166 6.45979 4.95382 5.95831 5.42884 5.95831H10.2862V1.45906C10.2862 0.456104 11.2113 -0.040689 11.7506 0.662319L17.7509 8.53601C18.083 8.97656 18.083 9.68894 17.7509 10.1295ZM6.85748 17.7689V15.8942C6.85748 15.5848 6.66462 15.3318 6.42889 15.3318H3.42874C2.79657 15.3318 2.28583 14.6616 2.28583 13.832V4.8335C2.28583 4.00395 2.79657 3.33375 3.42874 3.33375H6.42889C6.66462 3.33375 6.85748 3.08067 6.85748 2.77134V0.896655C6.85748 0.587332 6.66462 0.334249 6.42889 0.334249H3.42874C1.53579 0.334249 0 2.34954 0 4.8335V13.832C0 16.316 1.53579 18.3313 3.42874 18.3313H6.42889C6.66462 18.3313 6.85748 18.0782 6.85748 17.7689Z" fill="#E6E6E9"/>
</svg>
