<svg width="18" height="18" viewBox="0 0 18 18" fill="none" xmlns="http://www.w3.org/2000/svg">
<g id="codicon:pass">
<g id="Group">
<path id="Vector" d="M7.05375 12.2288H7.8525L12.9825 7.0988L12.1838 6.30005L7.45875 11.0363L5.29875 8.8763L4.5 9.67505L7.05375 12.2288Z" fill="#104573"/>
<path id="Vector_2" fill-rule="evenodd" clip-rule="evenodd" d="M9.6752 1.12503C11.4752 1.23753 13.1627 2.13753 14.4002 3.37503C15.8627 4.95003 16.6502 6.86253 16.6502 9.11253C16.6502 10.9125 15.9752 12.6 14.8502 14.0625C13.7252 15.4125 12.1502 16.425 10.3502 16.7625C8.55019 17.1 6.7502 16.875 5.1752 15.975C3.6002 15.075 2.3627 13.725 1.6877 12.0375C1.0127 10.35 0.900195 8.43753 1.4627 6.75003C2.0252 4.95003 3.0377 3.48753 4.6127 2.47503C6.0752 1.46253 7.8752 1.01253 9.6752 1.12503ZM10.2377 15.6375C11.7002 15.3 13.0502 14.5125 14.0627 13.275C14.9627 12.0375 15.5252 10.575 15.4127 9.00003C15.4127 7.20003 14.7377 5.40003 13.5002 4.16253C12.3752 3.03753 11.0252 2.36253 9.4502 2.25003C7.9877 2.13753 6.4127 2.47503 5.1752 3.37503C3.9377 4.27503 3.0377 5.51253 2.5877 7.08753C2.1377 8.55003 2.1377 10.125 2.8127 11.5875C3.4877 13.05 4.5002 14.175 5.8502 14.9625C7.2002 15.75 8.7752 15.975 10.2377 15.6375Z" fill="#104573"/>
</g>
</g>
</svg>
