<svg width="23" height="26" viewBox="0 0 23 26" fill="none" xmlns="http://www.w3.org/2000/svg">
<g id="Group">
<path id="Vector" d="M12.2134 25.3373L12.199 25.3397L12.1138 25.3814L12.0898 25.3862L12.073 25.3814L11.9878 25.3385C11.975 25.3353 11.9654 25.3377 11.959 25.3456L11.9542 25.3576L11.9338 25.8677L11.9398 25.8915L11.9518 25.907L12.0766 25.9952L12.0946 26L12.109 25.9952L12.2337 25.907L12.2481 25.8879L12.2529 25.8677L12.2325 25.3587C12.2293 25.346 12.2229 25.3389 12.2134 25.3373ZM12.5301 25.2026L12.5133 25.205L12.2925 25.3158L12.2805 25.3278L12.2769 25.3409L12.2985 25.8534L12.3045 25.8677L12.3141 25.8772L12.5553 25.9869C12.5705 25.9908 12.5821 25.9877 12.5901 25.9773L12.5949 25.9607L12.5541 25.2288C12.5501 25.2137 12.5421 25.205 12.5301 25.2026ZM11.6722 25.205C11.6669 25.2018 11.6606 25.2008 11.6545 25.2021C11.6485 25.2034 11.6432 25.207 11.6398 25.2121L11.6326 25.2288L11.5918 25.9607C11.5926 25.975 11.5994 25.9845 11.6122 25.9893L11.6302 25.9869L11.8714 25.876L11.8834 25.8665L11.887 25.8534L11.9086 25.3409L11.905 25.3266L11.893 25.3146L11.6722 25.205Z" fill="#104573"/>
<path id="Vector_2" d="M11.5004 0C9.27274 0 7.13632 0.87902 5.56113 2.44369C3.98595 4.00835 3.10101 6.13049 3.10101 8.34327V12.5483C3.10119 12.7332 3.05805 12.9156 2.97502 13.081L0.914776 17.1728C0.814135 17.3727 0.766613 17.5949 0.776724 17.8182C0.786835 18.0414 0.854243 18.2584 0.972545 18.4486C1.09085 18.6387 1.25612 18.7956 1.45266 18.9044C1.6492 19.0133 1.87048 19.0704 2.09549 19.0703H20.9053C21.1303 19.0704 21.3516 19.0133 21.5481 18.9044C21.7447 18.7956 21.9099 18.6387 22.0282 18.4486C22.1465 18.2584 22.2139 18.0414 22.2241 17.8182C22.2342 17.5949 22.1866 17.3727 22.086 17.1728L20.027 13.081C19.9435 12.9157 19.9 12.7333 19.8998 12.5483V8.34327C19.8998 6.13049 19.0148 4.00835 17.4396 2.44369C15.8645 0.87902 13.728 0 11.5004 0ZM11.5004 22.646C10.7557 22.6464 10.0291 22.4173 9.42097 21.9904C8.81279 21.5635 8.35288 20.9597 8.10464 20.2622H14.8961C14.6479 20.9597 14.188 21.5635 13.5798 21.9904C12.9716 22.4173 12.2451 22.6464 11.5004 22.646Z" fill="#104573"/>
</g>
</svg>
