<svg width="30" height="30" viewBox="0 0 30 30" fill="none" xmlns="http://www.w3.org/2000/svg">
<path d="M0 24.0583V29.1153C0 29.5811 0.366617 29.9471 0.83322 29.9471H5.8992C6.11584 29.9471 6.33247 29.8639 6.48245 29.6976L24.68 11.5488L18.4308 5.31064L0.249966 23.4594C0.0833222 23.6258 0 23.8254 0 24.0583ZM29.5127 6.72461C29.6671 6.57071 29.7897 6.38791 29.8733 6.18668C29.957 5.98544 30 5.76971 30 5.55184C30 5.33398 29.957 5.11825 29.8733 4.91701C29.7897 4.71577 29.6671 4.53297 29.5127 4.37907L25.6132 0.486481C25.459 0.332269 25.2759 0.209922 25.0743 0.126445C24.8727 0.0429682 24.6566 0 24.4384 0C24.2201 0 24.004 0.0429682 23.8024 0.126445C23.6008 0.209922 23.4177 0.332269 23.2635 0.486481L20.2139 3.53069L26.4631 9.76882L29.5127 6.72461Z" fill="black"/>
</svg>
