<svg width="18" height="19" viewBox="0 0 18 19" fill="none" xmlns="http://www.w3.org/2000/svg">
<path id="Vector" d="M7.57895 0C4.96279 0 2.84211 2.00399 2.84211 4.47619C2.84211 6.94839 4.96279 8.95238 7.57895 8.95238C10.1951 8.95238 12.3158 6.94839 12.3158 4.47619C12.3158 2.00399 10.1951 0 7.57895 0ZM2.01316 10.7429C1.47932 10.7429 0.967334 10.9432 0.589808 11.2999C0.212281 11.6566 0.00012561 12.1403 0 12.6448V12.981C0 14.6618 0.919895 15.9205 2.33053 16.732C3.71842 17.5301 5.58284 17.9048 7.57895 17.9048C7.83126 17.9048 8.08074 17.8988 8.32737 17.8869C7.23691 16.806 6.62951 15.3695 6.63158 13.8762C6.63158 12.7227 6.98684 11.647 7.59979 10.7429H2.01316ZM18 13.8762C18 16.5955 15.6671 18.8 12.7895 18.8C9.91184 18.8 7.57895 16.5955 7.57895 13.8762C7.57895 11.1569 9.91184 8.95238 12.7895 8.95238C15.6671 8.95238 18 11.1569 18 13.8762ZM13.3532 10.9224C13.3186 10.8062 13.2449 10.7038 13.1431 10.631C13.0414 10.5581 12.9172 10.5186 12.7895 10.5186C12.6618 10.5186 12.5376 10.5581 12.4358 10.631C12.3341 10.7038 12.2603 10.8062 12.2258 10.9224L11.6602 12.6367H9.83084C9.25626 12.6367 9.018 13.3605 9.48221 13.6931L10.9625 14.7522L10.3969 16.4666C10.2197 17.0042 10.8445 17.4513 11.3092 17.1192L12.7895 16.0597L14.2697 17.1192C14.7339 17.4518 15.3592 17.0042 15.1816 16.4666L14.6165 14.7522L16.0967 13.6927C16.5609 13.3605 16.3227 12.6363 15.7481 12.6363H13.9187L13.3532 10.9224Z" fill="#E6E6E9"/>
</svg>
