<svg width="24" height="25" viewBox="0 0 24 25" fill="none" xmlns="http://www.w3.org/2000/svg">
<path d="M17.0365 0H6.97548C2.6053 0 0 2.6053 0 6.97547V17.0245C0 21.4067 2.6053 24.012 6.97548 24.012H17.0245C21.3947 24.012 24 21.4067 24 17.0365V6.97547C24.012 2.6053 21.4067 0 17.0365 0ZM8.53625 17.8889C8.53625 18.2251 8.27212 18.4892 7.93595 18.4892H4.58629C4.25012 18.4892 3.98599 18.2251 3.98599 17.8889V12.3421C3.98599 11.5858 4.59829 10.9735 5.35467 10.9735H7.93595C8.27212 10.9735 8.53625 11.2376 8.53625 11.5738V17.8889ZM14.2751 17.8889C14.2751 18.2251 14.011 18.4892 13.6748 18.4892H10.3251C9.98898 18.4892 9.72485 18.2251 9.72485 17.8889V6.89143C9.72485 6.13506 10.3372 5.52275 11.0935 5.52275H12.9184C13.6748 5.52275 14.2871 6.13506 14.2871 6.89143V17.8889H14.2751ZM20.026 17.8889C20.026 18.2251 19.7618 18.4892 19.4257 18.4892H16.076C15.7398 18.4892 15.4757 18.2251 15.4757 17.8889V13.6268C15.4757 13.2906 15.7398 13.0265 16.076 13.0265H18.6573C19.4137 13.0265 20.026 13.6388 20.026 14.3952V17.8889Z" fill="#E6E6E9"/>
</svg>
