<svg width="24" height="27" viewBox="0 0 24 27" fill="none" xmlns="http://www.w3.org/2000/svg">
<path d="M23.5333 6.72089C23 5.38889 19.3733 2.53956 18.3467 1.47289C17.4581 0.652453 16.3242 0.147344 15.12 0.0355556C15.12 -0.0444444 7.18667 0.0355556 6.94667 0.0355556C5.61692 -0.0203443 4.30083 0.322648 3.16751 1.02046C2.03419 1.71827 1.13541 2.73902 0.586667 3.95156C0.223984 4.7559 0.0245743 5.62423 0 6.50622V20.2262C0.0433315 21.555 0.483741 22.8403 1.26443 23.9164C2.04513 24.9925 3.1303 25.81 4.38 26.2636C5.20968 26.566 6.09119 26.7006 6.97333 26.6596H17.0533C18.3831 26.7155 19.6992 26.3725 20.8325 25.6747C21.9658 24.9768 22.8646 23.9561 23.4133 22.7436C23.7764 21.9384 23.9758 21.0691 24 20.1862V8.77289C23.9898 8.06377 23.8308 7.36469 23.5333 6.72089ZM11.3333 21.7596C10.9797 21.7596 10.6406 21.6191 10.3905 21.369C10.1405 21.119 10 20.7798 10 20.4262C9.99968 20.1624 10.0777 19.9044 10.2242 19.685C10.3707 19.4655 10.5791 19.2946 10.8229 19.1937C11.0667 19.0929 11.335 19.0667 11.5937 19.1186C11.8524 19.1704 12.0899 19.2979 12.276 19.4849C12.4626 19.6712 12.5897 19.9087 12.6413 20.1673C12.6928 20.4258 12.6664 20.6939 12.5655 20.9375C12.4645 21.1811 12.2935 21.3892 12.0742 21.5356C11.8549 21.6819 11.597 21.7599 11.3333 21.7596ZM14.8133 14.7409C14.628 15.1811 14.3516 15.5772 14.0023 15.903C13.653 16.2289 13.2387 16.4772 12.7867 16.6316C12.7867 17.5382 12.4933 18.6556 11.3733 18.6422C8.96 18.4022 10.04 14.5809 11.88 14.1276C11.9838 14.0992 12.0801 14.0482 12.1621 13.9784C12.244 13.9086 12.3096 13.8217 12.3541 13.7237C12.3987 13.6257 12.4211 13.5191 12.4198 13.4114C12.4185 13.3038 12.3935 13.1978 12.3467 13.1009C12.2314 12.9366 12.0754 12.805 11.894 12.719C11.7125 12.633 11.5119 12.5955 11.3117 12.6103C11.1115 12.6251 10.9185 12.6916 10.7517 12.8033C10.5849 12.915 10.4499 13.0681 10.36 13.2476C10.2077 13.5628 9.93786 13.8056 9.60839 13.9239C9.27892 14.0422 8.9162 14.0264 8.59823 13.88C8.28027 13.7336 8.03246 13.4682 7.90812 13.141C7.78378 12.8138 7.79283 12.4508 7.93333 12.1302C9.77333 7.92089 16.5733 10.2916 14.8133 14.6876V14.7409ZM17.3733 7.29556C15.1467 7.29556 16.12 3.79289 15.92 2.32756C17.972 3.76723 19.855 5.43377 21.5333 7.29556H17.3733Z" fill="#E6E6E9"/>
</svg>
