<svg width="24" height="28" viewBox="0 0 24 28" fill="none" xmlns="http://www.w3.org/2000/svg">
<path d="M16.3636 8.72727H22.3636L16.3636 1.87013V8.72727ZM6.54545 0H17.4545L24 7.48052V19.9481C24 20.6094 23.7701 21.2436 23.361 21.7112C22.9518 22.1789 22.3968 22.4416 21.8182 22.4416H6.54545C5.9668 22.4416 5.41185 22.1789 5.00268 21.7112C4.59351 21.2436 4.36364 20.6094 4.36364 19.9481V2.49351C4.36364 1.83219 4.59351 1.19795 5.00268 0.730331C5.41185 0.262708 5.9668 0 6.54545 0ZM2.18182 4.98701V24.9351H21.8182V27.4286H2.18182C1.60316 27.4286 1.04821 27.1659 0.63904 26.6982C0.22987 26.2306 0 25.5964 0 24.9351V4.98701H2.18182Z" fill="#E6E6E9"/>
</svg>
