<svg width="24" height="26" viewBox="0 0 24 26" fill="none" xmlns="http://www.w3.org/2000/svg">
<path d="M8.32002 7.29716C10.5478 8.46155 11.9997 10.4366 11.9997 12.6813V12.6908C11.9997 12.6876 11.9997 12.6845 11.9997 12.6813C11.9997 10.4366 13.4516 8.46155 15.6494 7.31302C16.1094 6.99734 16.5013 6.68641 16.8673 6.35803L7.12012 6.34692C7.50009 6.68641 7.89205 6.99733 8.30602 7.28923L8.32002 7.29716Z" fill="white"/>
<path d="M18.3585 9.61339C20.5723 8.33161 21.9962 6.28043 21.9982 3.96592V3.17274H23.998V0H0V3.17274H1.99983V3.96592C2.00183 6.28043 3.42571 8.33161 5.61553 9.59912C6.95942 10.2813 7.85734 11.3917 7.99933 12.6751C7.81335 14.0203 6.89742 15.1562 5.58153 15.8526C3.41971 17.1439 2.03783 19.1491 2.00183 21.4096V22.2076H0.00199969V25.3803H24V22.2076H22.0002V21.4144C21.9642 19.1475 20.5823 17.1439 18.4625 15.8748C17.1026 15.1546 16.1866 14.0203 16.0027 12.7084C16.1447 11.3901 17.0426 10.2781 18.3405 9.62133L18.3585 9.61339ZM13.9988 12.6909C14.1428 14.5026 15.3087 16.0794 17.0366 17.0741C18.7904 18.0624 19.9263 19.6281 19.9983 21.408V22.2092H16.4586C15.0587 20.829 13.0389 19.0364 11.999 19.0364C10.9591 19.0364 8.93925 20.829 7.53937 22.2092H3.99967V21.416C4.07166 19.6281 5.20757 18.0624 6.91742 17.0963C8.68928 16.0778 9.85318 14.5026 9.99717 12.7084C9.87118 10.9253 8.71527 9.3913 7.00142 8.45217C5.17357 7.448 4.00367 5.81563 3.99767 3.96751V3.17432H19.9963V3.96751C19.9903 5.81721 18.8224 7.44959 17.0386 8.42996C15.2787 9.39289 14.1228 10.9269 13.9968 12.6783L13.9988 12.6909Z" fill="white"/>
</svg>
