<svg width="24" height="26" viewBox="0 0 24 26" fill="none" xmlns="http://www.w3.org/2000/svg">
<path d="M10.1053 0C6.61705 0 3.78947 2.67199 3.78947 5.96825C3.78947 9.26452 6.61705 11.9365 10.1053 11.9365C13.5935 11.9365 16.4211 9.26452 16.4211 5.96825C16.4211 2.67199 13.5935 0 10.1053 0ZM2.68421 14.3238C1.97242 14.3238 1.28978 14.591 0.78641 15.0665C0.283041 15.5421 0.000167479 16.1871 0 16.8597V17.3079C0 19.549 1.22653 21.2273 3.10737 22.3093C4.95789 23.3735 7.44379 23.873 10.1053 23.873C10.4417 23.873 10.7743 23.8651 11.1032 23.8491C9.64921 22.4081 8.83934 20.4927 8.8421 18.5016C8.8421 16.9636 9.31579 15.5294 10.1331 14.3238H2.68421ZM24 18.5016C24 22.1273 20.8895 25.0667 17.0526 25.0667C13.2158 25.0667 10.1053 22.1273 10.1053 18.5016C10.1053 14.8759 13.2158 11.9365 17.0526 11.9365C20.8895 11.9365 24 14.8759 24 18.5016ZM17.8042 14.5631C17.7582 14.4082 17.6599 14.2718 17.5242 14.1746C17.3885 14.0774 17.2229 14.0248 17.0526 14.0248C16.8824 14.0248 16.7168 14.0774 16.5811 14.1746C16.4454 14.2718 16.3471 14.4082 16.3011 14.5631L15.5469 16.849H13.1078C12.3417 16.849 12.024 17.814 12.6429 18.2575L14.6166 19.6696L13.8625 21.9554C13.6263 22.6722 14.4594 23.2684 15.0789 22.8256L17.0526 21.4129L19.0263 22.8256C19.6453 23.269 20.4789 22.6722 20.2421 21.9554L19.4886 19.6696L21.4623 18.2569C22.0813 17.814 21.7636 16.8484 20.9975 16.8484H18.5583L17.8042 14.5631Z" fill="#E6E6E9"/>
</svg>
