<svg width="18" height="19" viewBox="0 0 18 19" fill="none" xmlns="http://www.w3.org/2000/svg">
<path id="Vector" d="M12.7774 0.5H5.23161C1.95397 0.5 0 2.453 0 5.729V13.262C0 16.547 1.95397 18.5 5.23161 18.5H12.7684C16.046 18.5 18 16.547 18 13.271V5.729C18.009 2.453 16.055 0.5 12.7774 0.5ZM6.40219 13.91C6.40219 14.162 6.20409 14.36 5.95197 14.36H3.43971C3.18759 14.36 2.98949 14.162 2.98949 13.91V9.752C2.98949 9.185 3.44872 8.726 4.016 8.726H5.95197C6.20409 8.726 6.40219 8.924 6.40219 9.176V13.91ZM10.7063 13.91C10.7063 14.162 10.5082 14.36 10.2561 14.36H7.74386C7.49173 14.36 7.29363 14.162 7.29363 13.91V5.666C7.29363 5.099 7.75286 4.64 8.32015 4.64H9.68883C10.2561 4.64 10.7153 5.099 10.7153 5.666V13.91H10.7063ZM15.0195 13.91C15.0195 14.162 14.8214 14.36 14.5693 14.36H12.057C11.8049 14.36 11.6068 14.162 11.6068 13.91V10.715C11.6068 10.463 11.8049 10.265 12.057 10.265H13.993C14.5603 10.265 15.0195 10.724 15.0195 11.291V13.91Z" fill="#E6E6E9"/>
</svg>
