<svg width="18" height="22" viewBox="0 0 18 22" fill="none" xmlns="http://www.w3.org/2000/svg">
<path d="M3.65749 4.47911V0H14.3425V4.47911H3.65749ZM15.0007 10.4004C15.3035 10.4004 15.557 10.2673 15.7615 10.001C15.9659 9.73479 16.0685 9.40567 16.0692 9.01369C16.0699 8.62171 15.9674 8.29214 15.7615 8.02496C15.5556 7.75779 15.302 7.62466 15.0007 7.62558C14.6994 7.62651 14.4454 7.75963 14.2389 8.02496C14.0323 8.29029 13.9301 8.61986 13.9322 9.01369C13.9343 9.40752 14.0366 9.73664 14.2389 10.001C14.4412 10.2654 14.6951 10.3986 15.0007 10.4004ZM4.72599 19.9466H13.274V13.6537H4.72599V19.9466ZM3.65749 21.3333V15.7864H0V5.54689H18V15.7864H14.3425V21.3333H3.65749Z" fill="#E6E6E9"/>
</svg>
