<svg width="18" height="16" viewBox="0 0 18 16" fill="none" xmlns="http://www.w3.org/2000/svg">
<path id="Vector" d="M0.99784 3.79977H16.9632V1.61251C16.9632 1.45884 16.8994 1.31781 16.7717 1.18942C16.6439 1.06103 16.5032 0.997173 16.3496 0.997838H1.61151C1.45851 0.997838 1.31781 1.0617 1.18942 1.18942C1.06104 1.31715 0.997175 1.45817 0.99784 1.61251V3.79977ZM2.15051e-06 1.61251C2.15051e-06 1.15284 0.154002 0.769333 0.462001 0.461999C0.770001 0.154665 1.15317 0.000665225 1.61151 0H16.3496C16.8086 0 17.1918 0.153999 17.4991 0.461999C17.8064 0.769998 17.9604 1.1535 17.9611 1.61251V6.17861H0.99784V12.3582C0.99784 12.5112 1.0617 12.6519 1.18942 12.7803C1.31715 12.9087 1.45784 12.9726 1.61151 12.9719H6.25944V13.9697H1.61151C1.1525 13.9697 0.769002 13.8161 0.461003 13.5087C0.153004 13.2014 -0.000663075 12.8176 2.15051e-06 12.3572V1.61251ZM11.6168 15.5054L8.06752 11.9551L8.77299 11.2486L11.6168 14.0815L17.2935 8.40479L18 9.12323L11.6168 15.5054ZM0.99784 1.61151V12.3582C0.99784 12.5112 1.0617 12.6509 1.18942 12.7793C1.31715 12.9077 1.45784 12.9726 1.61151 12.9719L0.99784 12.9709V8.42275V11.2616V0.997838H1.61251C1.45884 0.997838 1.31781 1.0617 1.18942 1.18942C1.06104 1.31715 0.997175 1.45817 0.99784 1.61251" fill="#104573"/>
</svg>
