<svg width="26" height="27" viewBox="0 0 26 27" fill="none" xmlns="http://www.w3.org/2000/svg">
<path id="Vector" d="M22.7779 14.8365L22.7648 14.8635C22.8174 14.418 22.87 13.959 22.87 13.5C22.87 13.041 22.8306 12.609 22.7779 12.1635L22.7911 12.1905L26 9.5985L22.8042 3.9015L19.0298 5.4675L19.043 5.481C18.3591 4.941 17.6095 4.482 16.7941 4.131H16.8073L16.2023 0H9.79767L9.21902 4.1445H9.23217C8.41679 4.4955 7.66717 4.9545 6.98331 5.4945L6.99646 5.481L3.2089 3.9015L0 9.5985L3.2089 12.1905L3.22205 12.1635C3.16945 12.609 3.13 13.041 3.13 13.5C3.13 13.959 3.16945 14.418 3.2352 14.8635L3.22205 14.8365L0.460294 17.064L0.0263028 17.415L3.22205 23.085L7.00961 21.5325L6.98331 21.4785C7.68032 22.032 8.42994 22.491 9.25847 22.842H9.21902L9.81082 27H16.1892C16.1892 27 16.2286 26.757 16.2681 26.433L16.7678 22.8555H16.7547C17.5701 22.5045 18.3328 22.0455 19.0298 21.492L19.0035 21.546L22.7911 23.0985L25.9868 17.4285C25.9868 17.4285 25.8027 17.2665 25.5529 17.0775L22.7779 14.8365ZM12.9934 18.225C10.4552 18.225 8.39049 16.1055 8.39049 13.5C8.39049 10.8945 10.4552 8.775 12.9934 8.775C15.5316 8.775 17.5964 10.8945 17.5964 13.5C17.5964 16.1055 15.5316 18.225 12.9934 18.225Z" fill="#104573"/>
</svg>
