<svg width="248" height="176" viewBox="0 0 248 176" fill="none" xmlns="http://www.w3.org/2000/svg">
<path d="M31.6547 28.0182C39.4485 28.0182 45.7666 21.7461 45.7666 14.0091C45.7666 6.27209 39.4485 0 31.6547 0C23.8609 0 17.5428 6.27209 17.5428 14.0091C17.5428 21.7461 23.8609 28.0182 31.6547 28.0182Z" fill="#FFA665"/>
<path d="M197.407 143.365C192.487 143.364 187.727 141.632 183.973 138.476C180.219 135.32 177.714 130.944 176.904 126.127L176.887 126.025L176.953 125.946C178.056 124.633 178.983 123.183 179.711 121.633C178.907 122.504 177.996 123.272 176.999 123.917L176.666 124.137L176.647 123.741C176.63 123.399 176.622 123.06 176.622 122.732C176.62 120.805 176.888 118.888 177.418 117.034C179.831 108.615 180.244 99.5733 178.644 90.1615C178.371 88.5477 178.234 86.9141 178.234 85.2776C178.236 78.3619 180.719 71.673 185.236 66.4085C189.753 61.1439 196.011 57.6476 202.888 56.5456C209.766 55.4437 216.814 56.8079 222.77 60.3942C228.727 63.9805 233.203 69.5545 235.397 76.1182L235.464 76.3183L235.267 76.3973C233.789 77.0183 232.222 77.4042 230.624 77.541C232.313 77.9268 234.046 78.0921 235.779 78.0326L235.962 78.0263L236.006 78.2028C236.587 80.5168 236.881 82.8928 236.88 85.2776L236.879 85.5358C236.874 87.3621 237.256 89.1691 238.001 90.8389C238.747 92.5087 239.838 94.0039 241.204 95.2269C243.424 97.2323 245.181 99.6915 246.352 102.435C247.524 105.179 248.083 108.142 247.991 111.12C247.898 114.099 247.157 117.022 245.818 119.689C244.48 122.356 242.574 124.704 240.234 126.57L240.126 126.657L239.999 126.6C237.322 125.394 235.373 124.081 233.947 122.513C234.897 124.525 236.177 126.366 237.734 127.963L237.936 128.169L237.686 128.313C234.508 130.153 230.895 131.122 227.216 131.12L227.111 131.12C227.074 131.12 227.037 131.12 227 131.12C221.373 131.12 216.039 133.28 212.35 137.056C210.408 139.042 208.086 140.624 205.52 141.707C202.953 142.79 200.195 143.354 197.407 143.365Z" fill="#F2F2F2"/>
<path d="M190.051 175.875C189.961 175.875 189.873 175.843 189.805 175.784C189.737 175.725 189.693 175.644 189.68 175.555C189.664 175.444 188.103 164.268 189.505 149.414C190.8 135.696 194.958 115.937 207.413 99.7098C207.443 99.6709 207.48 99.6382 207.523 99.6136C207.565 99.589 207.612 99.573 207.661 99.5665C207.71 99.5599 207.76 99.563 207.807 99.5755C207.855 99.588 207.9 99.6097 207.939 99.6393C207.978 99.669 208.011 99.706 208.036 99.7482C208.061 99.7905 208.077 99.8372 208.083 99.8857C208.09 99.9341 208.087 99.9834 208.074 100.031C208.062 100.078 208.04 100.122 208.01 100.161C195.662 116.249 191.537 135.862 190.252 149.483C188.858 164.251 190.407 175.34 190.423 175.45C190.43 175.503 190.426 175.557 190.411 175.608C190.396 175.659 190.37 175.707 190.334 175.747C190.299 175.787 190.256 175.82 190.207 175.842C190.158 175.864 190.105 175.875 190.051 175.875Z" fill="#3F3D56"/>
<path d="M196.277 121.167C196.198 121.167 196.12 121.142 196.056 121.096C195.992 121.05 195.944 120.984 195.92 120.91C195.895 120.835 195.895 120.754 195.92 120.679C195.944 120.605 195.992 120.539 196.056 120.493C199.605 118.108 203.439 116.171 207.47 114.725C213.767 112.437 223.343 110.362 233.201 113.476C233.248 113.491 233.292 113.515 233.329 113.547C233.367 113.578 233.398 113.617 233.421 113.66C233.443 113.704 233.457 113.751 233.461 113.8C233.465 113.848 233.46 113.898 233.445 113.944C233.43 113.991 233.406 114.034 233.374 114.071C233.342 114.109 233.303 114.14 233.26 114.162C233.216 114.184 233.168 114.198 233.119 114.202C233.07 114.206 233.021 114.201 232.974 114.186C223.317 111.135 213.915 113.176 207.728 115.425C203.762 116.845 199.989 118.75 196.497 121.096C196.433 121.142 196.356 121.167 196.277 121.167Z" fill="#3F3D56"/>
<path d="M43.8736 148.219C40.3741 148.213 34.8647 148.493 31.8636 150.066C29.5575 151.276 27.4573 152.837 25.64 154.694C24.9396 155.413 24.2762 156.166 23.6523 156.951C21.9265 151.09 21.7256 144.89 23.0685 138.931C23.1629 138.53 23.1319 138.109 22.9795 137.726C22.8272 137.343 22.5608 137.015 22.2158 136.786C21.8709 136.557 21.4638 136.438 21.0488 136.444C20.6339 136.451 20.2309 136.583 19.8935 136.823C15.0181 140.352 11.9012 146.334 11.1432 152.385C10.1774 160.094 12.4516 167.864 15.6124 174.974L15.6114 174.977C15.6056 175.009 15.5967 175.044 15.588 175.079C15.5763 175.131 15.5617 175.183 15.55 175.236C15.5295 175.326 15.5062 175.418 15.4856 175.508L15.9974 175.485C16.0267 175.5 16.056 175.511 16.0851 175.526H28.9039C29.0737 175.342 29.232 175.148 29.3777 174.945C30.7962 173.014 31.3839 170.399 32.1005 168.038C32.6195 166.329 33.2687 164.662 34.0425 163.05C35.9909 159.003 38.6794 155.349 41.9712 152.276C42.0765 152.177 42.1847 152.078 42.293 151.983C42.8443 151.479 43.6989 150.806 44.534 150.174C44.7165 150.036 44.851 149.845 44.9184 149.628C44.9858 149.41 44.9829 149.177 44.91 148.962C44.8371 148.746 44.6979 148.558 44.512 148.425C44.3261 148.292 44.1028 148.22 43.8736 148.219Z" fill="#F2F2F2"/>
<path d="M130.423 28.2337C130.725 29.0707 130.683 29.9918 130.307 30.7984C129.931 31.605 129.25 32.2325 128.412 32.5456C128.227 32.6143 128.035 32.6666 127.841 32.7019L125.903 44.4772L121.359 40.3119L123.895 29.7684C123.802 28.88 124.064 27.9905 124.625 27.2924C125.187 26.5942 126.002 26.1435 126.896 26.0376C127.648 25.9521 128.406 26.1228 129.047 26.5219C129.688 26.921 130.174 27.5246 130.423 28.2337L130.423 28.2337Z" fill="#9E616A"/>
<path d="M96.8867 54.9154C96.8867 54.9154 100.414 50.2893 113.212 50.416L120.477 47.7959L122.137 32.688L127.948 34.0614L127.118 52.7402L114.666 59.8821L98.3405 63.1784L96.8867 54.9154Z" fill="#00BFA6"/>
<path d="M77.2197 168.808L80.5725 170.227L87.6791 158.064L82.7308 155.97L77.2197 168.808Z" fill="#9E616A"/>
<path d="M104.926 171.958L108.57 171.958L110.304 158.003L104.925 158.003L104.926 171.958Z" fill="#9E616A"/>
<path d="M104.797 175.732L116.004 175.731V175.591C116.004 174.442 115.544 173.341 114.726 172.529C113.908 171.717 112.799 171.261 111.642 171.26H111.642L109.595 169.719L105.775 171.261L104.797 171.261L104.797 175.732Z" fill="#2F2E41"/>
<path d="M75.1815 171.224L85.4913 175.586L85.5469 175.456C86.0004 174.4 86.0126 173.208 85.5807 172.142C85.1489 171.077 84.3085 170.225 83.2443 169.775L83.244 169.775L81.9698 167.56L77.8472 167.492L76.9472 167.111L75.1815 171.224Z" fill="#2F2E41"/>
<path d="M108.5 89.3692L114.039 122.849L112.532 127.838L114.51 131.372L111.605 162.404L112.784 164.98L109.49 166.997H102.786L102.431 138.904L100.775 134.779V132.506L97.4038 115.376L96.7832 134.971L95.8027 139.102L96.6263 142.043L95.5501 144.104L86.3273 163.764H78.8105L79.3919 159.318C78.0452 158.641 81.4139 156.663 81.7376 155.199L80.6308 152.727L81.7376 148.057L82.7524 138.932L81.6822 119.672L82.1858 93.7346L90.9789 87.0596L108.5 89.3692Z" fill="#2F2E41"/>
<path d="M95.0125 45.2778C99.2077 45.2778 102.609 41.9016 102.609 37.7369C102.609 33.5722 99.2077 30.196 95.0125 30.196C90.8172 30.196 87.4163 33.5722 87.4163 37.7369C87.4163 41.9016 90.8172 45.2778 95.0125 45.2778Z" fill="#9E616A"/>
<path d="M81.8132 103.257C82.0261 102.878 82.1528 102.457 82.1842 102.025C82.2157 101.592 82.1511 101.158 81.9952 100.752C81.8393 100.347 81.5958 99.9807 81.2818 99.6789C80.9678 99.3772 80.591 99.1475 80.1779 99.006L80.1599 88.4606L75.5567 91.4851L76.2795 101.036C76.086 101.74 76.1596 102.491 76.4864 103.145C76.8132 103.8 77.3704 104.312 78.0525 104.586C78.7346 104.86 79.4942 104.876 80.1873 104.631C80.8805 104.386 81.459 103.897 81.8132 103.257Z" fill="#9E616A"/>
<path d="M81.3882 56.5967L79.3318 54.6289L77.8211 55.7113C77.8211 55.7113 76.3347 57.4819 75.1457 62.7938C73.9566 68.1056 75.1457 97.3207 75.1457 97.3207L81.6855 96.4354L80.7937 81.0901L83.4691 68.1056L81.3882 56.5967Z" fill="#00BFA6"/>
<path d="M78.3516 55.1089L85.28 51.8235L89.984 47.4922L98.5618 47.4285L101.329 50.9994L108.634 53.4628L107.416 78.4683L108.246 80.3911C108.246 80.3911 107.668 80.9097 107.404 81.1998C107.14 81.4898 107.769 83.9182 107.769 83.9182L108.124 86.5602L107.14 87.2583L108.419 88.7586L108.737 91.1236C108.737 91.1236 86.4026 85.6129 82.1826 94.7419C81.9596 95.2243 82.5087 90.5104 82.5087 90.5104L83.0577 87.0595L82.513 83.962L81.6829 83.138L83.0751 81.7559L82.1826 75.198L78.3516 55.1089Z" fill="#00BFA6"/>
<path d="M150.67 168.66H146.558L144.602 152.917H150.67V168.66Z" fill="#FFB6B6"/>
<path d="M152.839 175.732H149.891L149.365 172.968L148.017 175.732H140.197C139.822 175.732 139.457 175.613 139.155 175.392C138.853 175.172 138.63 174.861 138.518 174.506C138.407 174.151 138.412 173.769 138.535 173.418C138.657 173.066 138.889 172.762 139.198 172.551L145.443 168.269V165.475L152.011 165.865L152.839 175.732Z" fill="#2F2E41"/>
<path d="M190.655 160.562L187.119 162.644L177.346 150.094L182.566 147.021L190.655 160.562Z" fill="#FFB6B6"/>
<path d="M196.155 165.546L193.619 167.039L191.746 164.928L192.007 167.988L185.281 171.948C184.958 172.138 184.583 172.22 184.21 172.183C183.837 172.147 183.486 171.992 183.207 171.743C182.929 171.494 182.738 171.163 182.662 170.799C182.587 170.434 182.63 170.055 182.787 169.717L185.958 162.872L184.523 160.469L190.373 157.478L196.155 165.546Z" fill="#2F2E41"/>
<path d="M148.834 67.999L146.836 80.6435L165.817 80.8912L163.319 68.7429L148.834 67.999Z" fill="#FFB6B6"/>
<path d="M146.764 80.4838L141.342 93.5361L140.947 128.441L145.574 161.768H150.693L152.791 128.984L157.951 106.552L163.039 130.014L178.861 152.978H186.636L172.342 127.672L170.688 100.106C170.688 100.106 171.719 88.412 166.442 81.5114L165.158 77.8276L146.764 80.4838Z" fill="#2F2E41"/>
<path d="M173.318 90.0132C172.79 89.8702 172.299 89.6139 171.881 89.2624C171.463 88.9109 171.128 88.4727 170.899 87.9787C170.67 87.4846 170.553 86.9468 170.557 86.403C170.56 85.8593 170.683 85.3228 170.918 84.8314L162.843 58.6973L168.782 57.5286L176.167 83.1454C176.973 83.5914 177.585 84.3152 177.889 85.1796C178.193 86.044 178.167 86.989 177.815 87.8356C177.464 88.6821 176.813 89.3714 175.984 89.7727C175.155 90.1741 174.206 90.2596 173.318 90.0132V90.0132Z" fill="#FFB6B6"/>
<path d="M163.739 77.1796L149.548 70.6111C149.174 70.6032 148.813 70.4738 148.521 70.2428C148.228 70.0117 148.019 69.6918 147.927 69.3319C147.226 66.575 145.682 63.5105 146.501 56.3545C146.662 54.9682 147.102 53.6282 147.795 52.4137C148.487 51.1991 149.418 50.1348 150.532 49.2837C151.646 48.4325 152.921 47.8118 154.281 47.4583C155.641 47.1048 157.058 47.0256 158.449 47.2255C159.917 47.4341 161.324 47.9484 162.577 48.7346C163.83 49.5208 164.902 50.5612 165.722 51.7876C166.542 53.0139 167.091 54.3984 167.334 55.8504C167.577 57.3023 167.508 58.7888 167.131 60.2123C165.484 66.4213 165.661 73.0607 165.473 75.6126C165.445 75.9816 165.296 76.3314 165.049 76.6086C164.803 76.8858 164.471 77.0751 164.106 77.1477C163.997 77.1691 163.886 77.18 163.776 77.18C163.763 77.18 163.751 77.1799 163.739 77.1796Z" fill="#00BFA6"/>
<path d="M133.185 33.2876C133.106 33.4625 133.014 33.631 132.908 33.7914L139.694 49.5863L143.865 50.0942L143.915 56.4431L136.443 56.2563C135.84 56.2412 135.257 56.0321 134.784 55.6605C134.31 55.2888 133.97 54.7747 133.816 54.1952L128.787 35.3084C128.074 35.0974 127.443 34.6761 126.978 34.1005C126.512 33.5249 126.235 32.8223 126.181 32.0861C126.128 31.35 126.302 30.6151 126.679 29.9793C127.057 29.3436 127.621 28.837 128.295 28.527C128.97 28.217 129.724 28.1183 130.457 28.244C131.189 28.3697 131.866 28.7138 132.397 29.2306C132.928 29.7474 133.287 30.4124 133.428 31.1371C133.569 31.8618 133.484 32.6119 133.185 33.2877V33.2876Z" fill="#FFB6B6"/>
<path d="M140.377 49.0234C140.546 48.8749 140.745 48.7643 140.961 48.6992C141.176 48.6341 141.404 48.6159 141.627 48.646L149.434 49.6951C150.588 49.6802 151.7 50.1202 152.528 50.9186C153.356 51.7169 153.83 52.8085 153.849 53.954C153.867 55.0995 153.426 56.2053 152.624 57.0291C151.822 57.8528 150.724 58.3272 149.57 58.3483L141.768 59.5969C141.545 59.6325 141.318 59.6201 141.1 59.5604C140.883 59.5008 140.681 59.3953 140.508 59.2512C140.336 59.1071 140.196 58.9278 140.1 58.7254C140.003 58.5231 139.952 58.3024 139.949 58.0785L139.848 50.2099C139.845 49.986 139.891 49.7641 139.982 49.5593C140.073 49.3546 140.208 49.1718 140.377 49.0234Z" fill="#00BFA6"/>
<path d="M162.481 65.3173C162.282 65.2131 162.107 65.0673 161.969 64.89C161.832 64.7127 161.734 64.5079 161.683 64.2898L159.91 56.6704C159.488 55.6042 159.509 54.4155 159.969 53.3648C160.428 52.314 161.289 51.487 162.362 51.065C163.434 50.6431 164.632 50.6606 165.692 51.1137C166.751 51.5668 167.587 52.4186 168.015 53.4823L171.951 60.2852C172.064 60.4794 172.133 60.6953 172.153 60.9182C172.174 61.1412 172.146 61.366 172.071 61.5772C171.997 61.7885 171.877 61.9813 171.721 62.1425C171.564 62.3037 171.374 62.4295 171.164 62.5114L163.786 65.3888C163.576 65.4708 163.351 65.5069 163.126 65.4945C162.901 65.4822 162.681 65.4217 162.481 65.3173Z" fill="#00BFA6"/>
<path d="M162.167 44.5384C166.056 42.4278 167.485 37.5871 165.359 33.7262C163.233 29.8653 158.357 28.4464 154.468 30.5569C150.579 32.6675 149.149 37.5083 151.275 41.3691C153.401 45.23 158.278 46.6489 162.167 44.5384Z" fill="#FFB6B6"/>
<path d="M152.796 34.3452C151.074 34.3356 149.352 34.3259 147.63 34.3163C147.508 33.1513 148.03 31.9923 148.791 31.0972C149.552 30.2021 150.537 29.5282 151.51 28.8654C152.498 28.1926 153.521 27.5044 154.695 27.2693C155.679 27.0722 156.697 27.2089 157.691 27.3462C159.01 27.5282 160.328 27.7102 161.647 27.8922C163.094 28.092 164.608 28.318 165.784 29.1797C167.374 30.345 166.967 33.0348 168.493 34.2819C173.099 38.0485 171.234 41.3379 171.32 44.7712C165.753 45.3509 160.186 45.9306 154.619 46.5103C154.014 46.6136 153.396 46.5958 152.798 46.4578C152.214 46.2804 151.678 45.7999 151.635 45.1945C151.586 44.5183 152.127 43.9648 152.566 43.4455C153.612 42.1579 154.241 40.5852 154.367 38.9353C154.494 37.2855 154.113 35.6364 153.275 34.2061L152.796 34.3452Z" fill="#2F2E41"/>
<path d="M93.0688 44.9086C93.0363 44.8377 93.004 44.7665 92.9717 44.6951C92.9841 44.6955 92.9964 44.6972 93.0089 44.6976L93.0688 44.9086Z" fill="#2F2E41"/>
<path d="M87.2049 30.539C87.5656 30.2012 88.0344 30 88.5294 29.9705C89.0206 29.9862 89.5187 30.4266 89.4169 30.904C90.3192 29.3181 91.7553 28.0984 93.4731 27.4589C95.191 26.8194 97.0809 26.8011 98.811 27.4071C100.032 27.8347 101.229 28.6901 101.51 29.9447C101.537 30.2741 101.636 30.5937 101.8 30.8815C101.942 31.0353 102.126 31.1446 102.329 31.1958C102.533 31.2471 102.747 31.238 102.946 31.1698L102.958 31.1663C103.026 31.1433 103.099 31.141 103.169 31.1598C103.238 31.1786 103.3 31.2176 103.347 31.2718C103.393 31.326 103.423 31.3928 103.431 31.4637C103.439 31.5345 103.425 31.6061 103.392 31.6693L103.046 32.3088C103.482 32.4052 103.934 32.3956 104.365 32.281C104.437 32.2623 104.512 32.2661 104.582 32.2919C104.651 32.3176 104.711 32.364 104.752 32.4247C104.794 32.4853 104.816 32.5573 104.815 32.6308C104.814 32.7043 104.79 32.7756 104.746 32.8349C104.172 33.6146 103.422 34.2505 102.557 34.692C101.692 35.1335 100.735 35.3685 99.762 35.3781C98.3819 35.3697 96.9875 34.8975 95.6442 35.2126C95.1246 35.3345 94.639 35.5703 94.2231 35.9028C93.8073 36.2353 93.4717 36.656 93.241 37.134C93.0102 37.6121 92.8903 38.1353 92.8898 38.6654C92.8894 39.1954 93.0085 39.7189 93.2384 40.1973C92.8258 39.7492 92.0281 39.8553 91.606 40.2946C91.4116 40.5298 91.2679 40.8021 91.1838 41.0946C91.0997 41.3872 91.077 41.6937 91.1171 41.9953C91.2297 42.919 91.506 43.8157 91.9332 44.644C90.301 44.5941 88.7236 44.0482 87.414 43.0799C86.1044 42.1117 85.1257 40.7677 84.6101 39.2297C84.0945 37.6916 84.0669 36.0334 84.5309 34.4793C84.995 32.9251 85.9283 31.5497 87.2049 30.539V30.539Z" fill="#2F2E41"/>
<path d="M238.13 176H0.360709C0.273495 176 0.189941 175.965 0.12836 175.904C0.0667791 175.843 0.032196 175.76 0.032196 175.673C0.032196 175.586 0.0667791 175.503 0.12836 175.442C0.189941 175.381 0.273495 175.346 0.360709 175.346H238.13C238.173 175.346 238.216 175.354 238.256 175.371C238.296 175.387 238.333 175.411 238.364 175.441C238.394 175.472 238.419 175.508 238.435 175.548C238.452 175.587 238.46 175.63 238.46 175.673C238.46 175.716 238.452 175.759 238.435 175.798C238.419 175.838 238.394 175.874 238.364 175.905C238.333 175.935 238.296 175.959 238.256 175.975C238.216 175.992 238.173 176 238.13 176Z" fill="#CCCCCC"/>
<path d="M57.1207 3.26071C50.2815 2.34299 42.4734 6.01273 40.7008 12.634C40.2541 11.4568 39.4419 10.451 38.3816 9.76191C37.3214 9.07287 36.0679 8.73627 34.8023 8.80074C33.5367 8.86521 32.3245 9.32741 31.3409 10.1206C30.3572 10.9137 29.6531 11.9968 29.3301 13.2133L30.1131 13.77C44.7693 16.9163 59.9408 16.8482 74.5679 13.5705C69.8105 8.60713 63.9599 4.17842 57.1207 3.26071Z" fill="#F0F0F0"/>
<path d="M27.7906 21.9395C20.9514 21.0218 13.1433 24.6915 11.3707 31.3128C10.924 30.1355 10.1118 29.1297 9.05155 28.4407C7.99129 27.7516 6.73782 27.415 5.47223 27.4795C4.20664 27.544 2.99446 28.0062 2.01081 28.7993C1.02717 29.5925 0.322986 30.6756 0 31.8921L0.78299 32.4488C15.4393 35.5951 30.6108 35.527 45.2378 32.2492C40.4805 27.2859 34.6299 22.8572 27.7906 21.9395Z" fill="#F0F0F0"/>
</svg>
