<svg width="18" height="21" viewBox="0 0 18 21" fill="none" xmlns="http://www.w3.org/2000/svg">
<path d="M12.2727 6.54545H16.7727L12.2727 1.4026V6.54545ZM4.90909 0H13.0909L18 5.61039V14.961C18 15.457 17.8276 15.9327 17.5207 16.2834C17.2138 16.6341 16.7976 16.8312 16.3636 16.8312H4.90909C4.4751 16.8312 4.05888 16.6341 3.75201 16.2834C3.44513 15.9327 3.27273 15.457 3.27273 14.961V1.87013C3.27273 1.37414 3.44513 0.898466 3.75201 0.547748C4.05888 0.197031 4.4751 0 4.90909 0ZM1.63636 3.74026V18.7013H16.3636V20.5714H1.63636C1.20237 20.5714 0.786158 20.3744 0.47928 20.0237C0.172402 19.673 0 19.1973 0 18.7013V3.74026H1.63636Z" fill="#E6E6E9"/>
</svg>
