<svg width="18" height="21" viewBox="0 0 18 21" fill="none" xmlns="http://www.w3.org/2000/svg">
<path id="Vector" fill-rule="evenodd" clip-rule="evenodd" d="M1.5 0H11.25L18 5.55882V19.7647C18 20.447 17.3284 21 16.5 21H1.5C0.67155 21 0 20.447 0 19.7647V1.23529C0 0.55306 0.67155 0 1.5 0ZM15.75 5.55882L11.25 1.85294V4.94118C11.25 5.2823 11.5858 5.55882 12 5.55882H15.75ZM14.0303 10.0633C14.3232 10.3045 14.3232 10.6955 14.0303 10.9367L7.5 16.3147L3.96968 13.4073C3.6768 13.1661 3.6768 12.775 3.96968 12.5338C4.26255 12.2927 4.73745 12.2927 5.03032 12.5338L7.5 14.5677L12.9697 10.0633C13.2626 9.82207 13.7374 9.82207 14.0303 10.0633Z" fill="white"/>
</svg>
