<svg width="66" height="54" viewBox="0 0 66 54" fill="none" xmlns="http://www.w3.org/2000/svg">
<path opacity="0.1" d="M27.9795 0.499992V12C23.3128 12.8333 19.5628 14.9167 16.7295 18.25C13.8962 21.5833 12.4795 25.4167 12.4795 29.75C12.4795 32.5833 12.8128 35 13.4795 37L6.97949 40.75C6.81283 40.0833 6.64616 39.4167 6.47949 38.75C6.31283 38.0833 6.22949 37.4167 6.22949 36.75C6.22949 34.5833 6.81283 32.8333 7.97949 31.5C9.14616 30.1667 10.4795 29.25 11.9795 28.75C13.6462 28.25 14.9795 28 15.9795 28C19.6462 28 22.6462 29.25 24.9795 31.75C27.4795 34.0833 28.7295 37 28.7295 40.5C28.7295 44 27.4795 47.0833 24.9795 49.75C22.6462 52.25 19.5628 53.5 15.7295 53.5C12.7295 53.5 10.0628 52.5833 7.72949 50.75C5.56283 48.75 3.81283 46.1667 2.47949 43C1.14616 39.8333 0.479493 36.4167 0.479493 32.75C0.479493 29.4167 0.979493 26 1.97949 22.5C3.14616 19 4.81283 15.6667 6.97949 12.5C9.31283 9.33332 12.2295 6.66665 15.7295 4.49999C19.2295 2.33333 23.3128 0.999996 27.9795 0.499992ZM64.4795 0.499992V12C59.8128 12.8333 56.0628 14.9167 53.2295 18.25C50.3962 21.5833 48.9795 25.4167 48.9795 29.75C48.9795 32.5833 49.3128 35 49.9795 37L43.7295 40.75C43.5628 40.0833 43.3962 39.4167 43.2295 38.75C43.0628 38.0833 42.9795 37.4167 42.9795 36.75C42.9795 34.5833 43.4795 32.8333 44.4795 31.5C45.6462 30.1667 46.9795 29.25 48.4795 28.75C50.1462 28.25 51.5628 28 52.7295 28C56.2295 28 59.1462 29.25 61.4795 31.75C63.9795 34.0833 65.2295 37 65.2295 40.5C65.2295 44 63.9795 47.0833 61.4795 49.75C59.1462 52.25 56.0628 53.5 52.2295 53.5C49.2295 53.5 46.5628 52.5833 44.2295 50.75C42.0628 48.75 40.3128 46.1667 38.9795 43C37.8128 39.8333 37.2295 36.4167 37.2295 32.75C37.2295 29.4167 37.7295 26 38.7295 22.5C39.8962 19 41.5628 15.6667 43.7295 12.5C46.0628 9.33332 48.8962 6.66665 52.2295 4.49999C55.7295 2.33333 59.8128 0.999996 64.4795 0.499992Z" fill="black"/>
</svg>
