<svg width="30" height="23" viewBox="0 0 30 23" fill="none" xmlns="http://www.w3.org/2000/svg">
<path d="M10.3993 6.45873C13.1841 7.48933 14.9989 9.23743 14.9989 11.2242V11.2327C14.9989 11.2298 14.9989 11.227 14.9989 11.2242C14.9989 9.23743 16.8138 7.48933 19.561 6.47277C20.136 6.19335 20.6259 5.91815 21.0834 5.6275L8.89941 5.61768C9.37437 5.91815 9.86433 6.19335 10.3818 6.45171L10.3993 6.45873Z" fill="white"/>
<path d="M22.9481 8.50881C25.7154 7.3743 27.4952 5.55881 27.4977 3.51024V2.80819H29.9975V0H0V2.80819H2.49979V3.51024C2.50229 5.55881 4.28214 7.3743 7.01941 8.49618C8.69928 9.09994 9.82168 10.0828 9.99917 11.2187C9.76669 12.4094 8.62178 13.4147 6.97692 14.0311C4.27464 15.1741 2.54729 16.9488 2.50229 18.9497V19.6559H0.00249961V22.4641H30V19.6559H27.5002V18.9539C27.4552 16.9474 25.7279 15.1741 23.0781 14.0508C21.3782 13.4133 20.2333 12.4094 20.0033 11.2482C20.1808 10.0814 21.3032 9.09713 22.9256 8.51583L22.9481 8.50881ZM17.4985 11.2328C17.6785 12.8362 19.1359 14.2319 21.2957 15.1123C23.488 15.987 24.9079 17.3729 24.9979 18.9483V19.6573H20.5733C18.8234 18.4358 16.2986 16.8491 14.9987 16.8491C13.6989 16.8491 11.1741 18.4358 9.42421 19.6573H4.99958V18.9553C5.08958 17.3729 6.50946 15.987 8.64678 15.1319C10.8616 14.2305 12.3165 12.8362 12.4965 11.2482C12.339 9.67 10.8941 8.31224 8.75177 7.48102C6.46696 6.59222 5.00458 5.14741 4.99708 3.51164V2.80959H24.9954V3.51164C24.9879 5.14881 23.528 6.59363 21.2982 7.46136C19.0984 8.31364 17.6535 9.6714 17.496 11.2215L17.4985 11.2328Z" fill="white"/>
</svg>
