<svg width="30" height="22" viewBox="0 0 30 22" fill="none" xmlns="http://www.w3.org/2000/svg">
<path fill-rule="evenodd" clip-rule="evenodd" d="M0 1.43478C0 1.05425 0.128137 0.689312 0.356221 0.420238C0.584306 0.151164 0.893656 0 1.21622 0H28.7838C29.1063 0 29.4157 0.151164 29.6438 0.420238C29.8719 0.689312 30 1.05425 30 1.43478C30 1.81531 29.8719 2.18025 29.6438 2.44933C29.4157 2.7184 29.1063 2.86957 28.7838 2.86957H1.21622C0.893656 2.86957 0.584306 2.7184 0.356221 2.44933C0.128137 2.18025 0 1.81531 0 1.43478ZM29.5314 9.86939C29.7854 10.1034 29.9502 10.4468 29.9898 10.8242C30.0293 11.2015 29.9402 11.582 29.7422 11.8819L23.4178 21.4471C23.3064 21.6155 23.1644 21.7523 23.0024 21.8477C22.8404 21.943 22.6624 21.9945 22.4814 21.9984C22.3003 22.0022 22.1208 21.9583 21.956 21.8699C21.7912 21.7815 21.6452 21.6508 21.5286 21.4873L18.1232 16.7047C18.0139 16.5616 17.93 16.394 17.8768 16.2118C17.8235 16.0297 17.8019 15.8368 17.8132 15.6446C17.8245 15.4523 17.8685 15.2648 17.9426 15.0931C18.0166 14.9213 18.1193 14.769 18.2444 14.6451C18.3694 14.5212 18.5144 14.4283 18.6706 14.3719C18.8267 14.3155 18.9909 14.2968 19.1534 14.3169C19.3158 14.337 19.4732 14.3955 19.616 14.4889C19.7589 14.5823 19.8843 14.7087 19.9849 14.8605L22.4238 18.2849L27.8238 10.1162C27.922 9.96753 28.0441 9.84317 28.1831 9.75022C28.3221 9.65726 28.4753 9.59753 28.6339 9.57444C28.7925 9.55134 28.9533 9.56533 29.1073 9.61561C29.2613 9.6659 29.4054 9.75148 29.5314 9.86748M0 11C0 10.6195 0.128137 10.2545 0.356221 9.98546C0.584306 9.71638 0.893656 9.56522 1.21622 9.56522H12.5676C12.8901 9.56522 13.1995 9.71638 13.4276 9.98546C13.6556 10.2545 13.7838 10.6195 13.7838 11C13.7838 11.3805 13.6556 11.7455 13.4276 12.0145C13.1995 12.2836 12.8901 12.4348 12.5676 12.4348H1.21622C0.893656 12.4348 0.584306 12.2836 0.356221 12.0145C0.128137 11.7455 0 11.3805 0 11ZM0 20.5652C0 20.1847 0.128137 19.8197 0.356221 19.5507C0.584306 19.2816 0.893656 19.1304 1.21622 19.1304H12.5676C12.8901 19.1304 13.1995 19.2816 13.4276 19.5507C13.6556 19.8197 13.7838 20.1847 13.7838 20.5652C13.7838 20.9457 13.6556 21.3107 13.4276 21.5798C13.1995 21.8488 12.8901 22 12.5676 22H1.21622C0.893656 22 0.584306 21.8488 0.356221 21.5798C0.128137 21.3107 0 20.9457 0 20.5652Z" fill="#E6E6E9"/>
</svg>
