<svg width="31" height="17" viewBox="0 0 31 17" fill="none" xmlns="http://www.w3.org/2000/svg">
<path d="M21.4436 11.4485L23.1493 10.3865C23.4158 10.2206 23.8796 10.3367 23.8796 10.5757V15.401C23.8796 16.2804 22.7335 16.9939 21.321 16.9939H2.55852C1.14601 16.9939 0 16.2804 0 15.401V3.71936C0 2.83992 1.14601 2.12642 2.55852 2.12642H17.1368C17.5152 2.12642 17.7071 2.41182 17.4406 2.58107L15.7349 3.64303C15.655 3.69281 15.5484 3.71936 15.4311 3.71936H2.55852V15.401H21.321V11.6343C21.321 11.5646 21.3637 11.4983 21.4436 11.4485ZM29.7908 4.75146L15.7936 13.4662L10.975 13.7981C9.57847 13.8943 8.38982 13.1609 8.5444 12.2848L9.07743 9.28472L23.0747 0.569976C24.2953 -0.189992 26.2675 -0.189992 27.4828 0.569976L29.7855 2.00363C31.0061 2.7636 31.0061 3.99481 29.7908 4.75146ZM24.5245 5.77692L21.4276 3.84879L11.524 10.0181L11.1349 12.1852L14.6156 11.943L24.5245 5.77692ZM27.9785 3.13196L25.6758 1.69831C25.4573 1.56225 25.1002 1.56225 24.887 1.69831L23.2399 2.72377L26.3368 4.6519L27.9839 3.62644C28.1971 3.48706 28.1971 3.26803 27.9785 3.13196Z" fill="#E6E6E9"/>
</svg>
